<?xml version="1.0" encoding="UTF-8"?>
<svg width="1em" height="1em" viewBox="0 0 16 16" version="1.1" xmlns="http://www.w3.org/2000/svg" xmlns:xlink="http://www.w3.org/1999/xlink">
    <g stroke="none" stroke-width="1" fill="none" fill-rule="evenodd">
        <g transform="translate(-1.000000, -1.000000)">
            <rect x="0" y="0" width="18" height="18"></rect>
            <path d="M14.0625,12.375 C14.0625,13.3070625 13.3070625,14.0625 12.375,14.0625 C11.4429375,14.0625 10.6875,13.3070625 10.6875,12.375 L10.6875,3.375 C10.6875,3.0639375 10.4360625,2.8125 10.125,2.8125 C9.8139375,2.8125 9.5625,3.0639375 9.5625,3.375 L9.5625,14.625 C9.5625,15.5570625 8.8070625,16.3125 7.875,16.3125 C6.9429375,16.3125 6.1875,15.5570625 6.1875,14.625 L6.1875,6.75 C6.1875,6.4389375 5.9360625,6.1875 5.625,6.1875 C5.3139375,6.1875 5.0625,6.4389375 5.0625,6.75 L5.0625,10.6875 C5.0625,10.9985625 4.8110625,11.25 4.5,11.25 L1.125,11.25 L1.125,10.125 L3.9375,10.125 L3.9375,6.75 C3.9375,5.8179375 4.6929375,5.0625 5.625,5.0625 C6.5570625,5.0625 7.3125,5.8179375 7.3125,6.75 L7.3125,14.625 C7.3125,14.9360625 7.5639375,15.1875 7.875,15.1875 C8.1860625,15.1875 8.4375,14.9360625 8.4375,14.625 L8.4375,3.375 C8.4375,2.4429375 9.1929375,1.6875 10.125,1.6875 C11.0570625,1.6875 11.8125,2.4429375 11.8125,3.375 L11.8125,12.375 C11.8125,12.6860625 12.0639375,12.9375 12.375,12.9375 C12.6860625,12.9375 12.9375,12.6860625 12.9375,12.375 L12.9375,7.3125 C12.9375,7.0014375 13.1889375,6.75 13.5,6.75 L16.875,6.75 L16.875,7.875 L14.0625,7.875 L14.0625,12.375 Z" fill="#2F3A4E"></path>
        </g>
    </g>
</svg>