<svg width="1em" height="1em" viewBox="0 0 26 26" version="1.1" xmlns="http://www.w3.org/2000/svg" xmlns:xlink="http://www.w3.org/1999/xlink">
  <g stroke="none" stroke-width="1" fill="none" fill-rule="evenodd">
    <g transform="translate(1.625000, 1.625000)" fill="currentColor" fill-rule="nonzero">
      <polygon points="22.75 14.625 22.75 16.2512629 14.2276875 16.2508125 19.5 21.6858253 18.4677227 22.75 12.1875 16.2751875 12.1875 21.125 10.5625 21.125 10.5625 16.2751875 4.28227734 22.75 3.25 21.6858253 8.5215 16.2508125 0 16.2512629 0 14.625"></polygon>
      <path d="M20.3125,1.625 L20.3125,13 L20.3125,13 L2.4375,13 L2.4375,1.625 C2.4375,0.727537282 3.16503728,-5.71833781e-17 4.0625,0 L18.6875,0 C19.5849627,-3.86905832e-16 20.3125,0.727537282 20.3125,1.625 Z"></path>
    </g>
    <g transform="translate(16.000000, 16.000000)">
      <circle fill="#F4F4F6" cx="5" cy="5" r="5"></circle>
      <path d="M0.833333333,5 L0.833333333,5 C0.833333333,7.30059524 2.69940476,9.16666667 5,9.16666667 C7.30059524,9.16666667 9.16666667,7.30059524 9.16666667,5 C9.16666667,2.69940476 7.30059524,0.833333333 5,0.833333333 C2.69940476,0.836309524 0.836309524,2.69940476 0.833333333,5 Z M7.72321429,7.30654762 L2.69345238,2.27678571 C3.33928571,1.72916667 4.15178571,1.42857143 5,1.42857143 C6.9702381,1.43154762 8.57440476,3.0297619 8.57143271,5 C8.57143271,5.8452381 8.27083333,6.66369048 7.72321429,7.30654762 Z M2.69047619,7.72619048 C1.1875,6.45238095 1,4.20238095 2.27380952,2.69940476 L7.30059524,7.72916667 C6.6577381,8.27380952 5.8422619,8.57440476 5,8.57440476 C4.1547619,8.57142857 3.33630952,8.27380952 2.69047619,7.72619048 Z" stroke="#F53F3F" stroke-width="0.2" fill="#F53F3F" fill-rule="nonzero"></path>
    </g>
  </g>
</svg>