<?xml version="1.0" encoding="UTF-8"?>
<svg width="1em" height="1em" viewBox="0 0 18 18" version="1.1" xmlns="http://www.w3.org/2000/svg" xmlns:xlink="http://www.w3.org/1999/xlink">
    <g stroke="none" stroke-width="1" fill="none" fill-rule="evenodd" opacity="0.900000036">
        <g transform="translate(-84.000000, -409.000000)">
            <g transform="translate(63.000000, 387.000000)">
                <g transform="translate(12.000000, 13.000000)">
                    <g transform="translate(9.000000, 9.000000)">
                        <path d="M6.75,1.125 L6.75,2.25 L11.25,2.25 L11.25,1.125 L12.375,1.125 L12.375,2.25 L14.625,2.25 C15.24375,2.25 15.75,2.75625 15.75,3.375 L15.75,14.625 C15.75,15.24375 15.24375,15.75 14.625,15.75 L3.375,15.75 C2.75625,15.75 2.25,15.24375 2.25,14.625 L2.25,3.375 C2.25,2.75625 2.75625,2.25 3.375,2.25 L5.625,2.25 L5.625,1.125 L6.75,1.125 Z M11.5815937,8.769375 L8.43721875,11.908125 L6.98034375,10.456875 L6.18721875,11.25 L8.43721875,13.5 L12.3747187,9.5625 L11.5815937,8.769375 Z M5.625,3.375 L3.375,3.375 L3.375,5.625 L14.625,5.625 L14.625,3.375 L12.375,3.375 L12.375,4.5 L11.25,4.5 L11.25,3.375 L6.75,3.375 L6.75,4.5 L5.625,4.5 L5.625,3.375 Z" fill="currentColor" fill-rule="nonzero"></path>
                        <rect x="0" y="0" width="18" height="18"></rect>
                    </g>
                </g>
            </g>
        </g>
    </g>
</svg>