<svg
  width="1em"
  height="1em"
  viewBox="0 0 108 108"
  version="1.1"
  xmlns="http://www.w3.org/2000/svg"
  xmlns:xlink="http://www.w3.org/1999/xlink"
>
  <defs>
    <path d="M98.8571429,4 L104,9.14285714 L79,34.1428571 L79,39.8928571 L98.3571429,26.0714286 C99.4642857,25.2857143 100.892857,25.1785714 102.071429,25.7857143 C103.25,26.3928571 104,27.6071429 104,29 L104,29 L104,79 C104,80.3571429 103.25,81.5714286 102.071429,82.1785714 C100.892857,82.7857143 99.4642857,82.6785714 98.3571429,81.8928571 L98.3571429,81.8928571 L79,68.0714286 L79,82.5714286 C79,86.5 75.7857143,89.7142857 71.8571429,89.7142857 L71.8571429,89.7142857 L23.4285714,89.7142857 L9.14285714,104 L4,98.8571429 L98.8571429,4 Z M69.3928571,18.25 L4.10714286,83.5714286 C4.07142857,83.2142857 4,82.8928571 4,82.5357143 L4,82.5357143 L4,25.3928571 C4,21.4642857 7.21428571,18.25 11.1428571,18.25 L11.1428571,18.25 L69.3928571,18.25 Z" id="camera_close_solid__path-1"/>
  </defs>
  <g id="camera_close_solid__开播/摄像头已关闭" stroke="none" stroke-width="1" fill="none" fill-rule="evenodd">
    <mask id="camera_close_solid__mask-2" fill="white">
      <use xlink:href="#camera_close_solid__path-1"/>
    </mask>
    <use id="camera_close_solid__蒙版" fill="currentColor" xlink:href="#camera_close_solid__path-1"/>
  </g>
</svg>