<svg width="1em" height="1em" viewBox="0 0 26 26" version="1.1" xmlns="http://www.w3.org/2000/svg" xmlns:xlink="http://www.w3.org/1999/xlink"><g id="camera_disable_svg" stroke="none" stroke-width="1" fill="none" fill-rule="evenodd"><g id="camera_disable_svg__编组-24"><rect id="camera_disable_svg__1" x="0" y="0" width="26" height="26"/><path d="M17.4375,21.25 L3.625,21.25 C2.73125,21.25 2,20.51875 2,19.625 L2,6.625 C2,5.73125 2.73125,5 3.625,5 L17.4375,5 C18.33125,5 19.0625,5.73125 19.0625,6.625 L19.0625,9.92375 L23.46625,6.779375 C23.71,6.600625 24.043125,6.57625 24.31125,6.714375 C24.579375,6.8525 24.75,7.12875 24.75,7.4375 L24.75,18.8125 C24.75,19.12125 24.579375,19.3975 24.31125,19.535625 C24.043125,19.67375 23.718125,19.649375 23.46625,19.470625 L19.0625,16.32625 L19.0625,19.625 C19.0625,20.51875 18.33125,21.25 17.4375,21.25 Z" id="camera_disable_svg__蒙版" fill="currentColor" fill-rule="nonzero"/><g id="camera_disable_svg__编组-23" transform="translate(11.000000, 13.000000)"><circle id="camera_disable_svg__椭圆形" fill="#F4F4F6" cx="5" cy="5" r="5"/><path d="M0.833333333,5 L0.833333333,5 C0.833333333,7.30059524 2.69940476,9.16666667 5,9.16666667 C7.30059524,9.16666667 9.16666667,7.30059524 9.16666667,5 C9.16666667,2.69940476 7.30059524,0.833333333 5,0.833333333 C2.69940476,0.836309524 0.836309524,2.69940476 0.833333333,5 Z M7.72321429,7.30654762 L2.69345238,2.27678571 C3.33928571,1.72916667 4.15178571,1.42857143 5,1.42857143 C6.9702381,1.43154762 8.57440476,3.0297619 8.57143271,5 C8.57143271,5.8452381 8.27083333,6.66369048 7.72321429,7.30654762 Z M2.69047619,7.72619048 C1.1875,6.45238095 1,4.20238095 2.27380952,2.69940476 L7.30059524,7.72916667 C6.6577381,8.27380952 5.8422619,8.57440476 5,8.57440476 C4.1547619,8.57142857 3.33630952,8.27380952 2.69047619,7.72619048 Z" id="camera_disable_svg__形状" stroke="#F53F3F" stroke-width="0.2" fill="#F53F3F" fill-rule="nonzero"/></g></g></g></svg>