<svg
  width="1em"
  height="1em"
  viewBox="0 0 22 22"
  version="1.1"
  xmlns="http://www.w3.org/2000/svg"
  fill="currentColor"
>
  <path d="M4.1249999,20.625 L12.3749999,20.625 C13.1312499,20.625 13.7499999,20.00625 13.7499999,19.25 L13.7499999,17.1875 L12.3749999,17.1875 L12.3749999,19.25 L4.1249999,19.25 L4.1249999,2.75000003 L12.3749999,2.75000003 L12.3749999,4.81250003 L13.7499999,4.81250003 L13.7499999,2.75000003 C13.7499999,1.99375003 13.1312499,1.37500003 12.3749999,1.37500003 L4.1249999,1.37500003 C3.3687499,1.37500003 2.7499999,1.99375003 2.7499999,2.75000003 L2.7499999,19.25 C2.7499999,20.00625 3.3687499,20.625 4.1249999,20.625 Z"></path>
  <polygon points="14.1556249 14.155625 16.6168749 11.6875 6.8749999 11.6875 6.8749999 10.3125 16.6168749 10.3125 14.1556249 7.84437503 15.1249999 6.87500003 19.2499999 11 15.1249999 15.125"></polygon>
</svg>