<svg width="1em" height="1em" viewBox="0 0 26 26" version="1.1" xmlns="http://www.w3.org/2000/svg" xmlns:xlink="http://www.w3.org/1999/xlink">
  <g stroke="none" stroke-width="1" fill="none" fill-rule="evenodd">
    <g transform="translate(2.785714, 3.714286)" fill="currentColor">
      <path d="M11.7718261,4.27989386 L11.7921875,2.8161555 L18.9041507,2.8161555 C18.9041507,2.8161555 20.4167154,2.64782559 20.4167154,4.33844339 L20.4167154,16.872435 C20.4167154,16.872435 20.6508721,18.5630528 19.0379545,18.5630528 L1.51256475,18.5630528 C1.51256475,18.5630528 0,18.7987147 0,16.7699733 L0,1.8354508 C0,1.8354508 0.0334509513,0.0101690583 1.88197961,0.0101690583 L8.53290136,0.0101690583 C8.53290136,0.0101690583 9.34008736,-0.159624592 10.0120152,0.888412075 C10.6490376,1.90278276 11.0199069,2.5453639 11.0199069,2.5453639 C11.0199069,2.5453639 11.248246,2.80883681 11.7718261,2.8161555 L11.7718261,4.27989386 Z M17.5486599,8.07243995 L17.5486599,7.32886087 L2.70807267,7.32886087 L2.70807267,8.07243995 L2.70807267,8.14123566 L2.70807267,8.91701699 L17.5486599,8.91701699 L17.5486599,8.68410784 L17.5486599,8.14123566 L17.5486599,8.07243995 Z"></path>
    </g>
    <g transform="translate(16.000000, 16.000000)">
      <circle fill="#F4F4F6" cx="5" cy="5" r="5"></circle>
      <path d="M0.833333333,5 L0.833333333,5 C0.833333333,7.30059524 2.69940476,9.16666667 5,9.16666667 C7.30059524,9.16666667 9.16666667,7.30059524 9.16666667,5 C9.16666667,2.69940476 7.30059524,0.833333333 5,0.833333333 C2.69940476,0.836309524 0.836309524,2.69940476 0.833333333,5 Z M7.72321429,7.30654762 L2.69345238,2.27678571 C3.33928571,1.72916667 4.15178571,1.42857143 5,1.42857143 C6.9702381,1.43154762 8.57440476,3.0297619 8.57143271,5 C8.57143271,5.8452381 8.27083333,6.66369048 7.72321429,7.30654762 Z M2.69047619,7.72619048 C1.1875,6.45238095 1,4.20238095 2.27380952,2.69940476 L7.30059524,7.72916667 C6.6577381,8.27380952 5.8422619,8.57440476 5,8.57440476 C4.1547619,8.57142857 3.33630952,8.27380952 2.69047619,7.72619048 Z" stroke="#F53F3F" stroke-width="0.2" fill="#F53F3F" fill-rule="nonzero"></path>
    </g>
  </g>
</svg>