<?xml version="1.0" encoding="UTF-8"?>
<svg width="26px" height="26px" viewBox="0 0 26 26" version="1.1" xmlns="http://www.w3.org/2000/svg" xmlns:xlink="http://www.w3.org/1999/xlink">
    <defs>
        <path d="M16.5416599,11.613383 L14.5757067,13.6308734 C14.0637713,14.1527185 13.4473284,14.1558248 13.0883677,13.7194007 C12.8490607,13.4305222 12.942966,12.5405899 13.0111231,11.9752578 L13.9956142,3.6661171 C14.0864904,2.92373033 13.5684965,2.20774644 12.8445169,2.11611292 C12.1205372,2.02758563 11.4616854,2.59757715 11.3753531,3.33996392 L10.2863544,9.86613383 C10.2303141,10.0292104 10.1061167,10.0571664 10.0924853,9.83817784 L9.72443708,1.35508883 C9.72443708,0.606693933 9.13278581,0 8.40294698,0 C7.67310816,0 7.08145689,0.606693933 7.08145689,1.35508883 L7.05570866,9.90185537 C7.06176706,10.0012544 6.97846396,10.0292104 6.96483255,9.91583336 L5.78950152,3.24522419 C5.66076037,2.50904985 4.97161654,1.9778861 4.25369527,2.11145359 C3.535774,2.24346798 3.06018902,2.99051408 3.18893018,3.72668841 L4.23552005,11.5326213 C4.23552005,11.6724012 4.19159659,11.753163 4.12646871,11.5761084 L2.56642883,7.29262989 C2.32257793,6.58751777 1.56679162,6.17749662 0.879162388,6.4275474 C0.191533156,6.67915128 -0.167427478,7.49453425 0.0764234171,8.19964637 L2.81330893,17.3707633 L2.85874698,17.5198619 L2.86480539,17.5384992 L2.86631999,17.5447117 C3.64772173,20.0027097 5.88250364,21.6662515 8.40370429,21.6666667 C10.0957788,21.6532752 11.7387681,21.0820679 13.0898824,20.0374539 C14.5045205,19.1630527 19.0346945,14.1713559 19.0346945,14.1713559 C19.7208092,13.4615844 19.6163016,12.3821727 18.930187,11.6786137 C18.2425578,10.9750547 17.2292892,10.909824 16.5416599,11.613383 Z" id="path-1"></path>
    </defs>
    <g stroke="none" stroke-width="1" fill="none" fill-rule="evenodd">
        <g id="编组-35">
            <rect x="0" y="0" width="26" height="26"></rect>
            <g id="ic_hands" transform="translate(3.250000, 2.166667)">
                <mask id="mask-2" fill="currentColor">
                    <use xlink:href="#path-1"></use>
                </mask>
                <use fill="currentColor" fill-rule="nonzero" xlink:href="#path-1"></use>
                <rect fill="currentColor" mask="url(#mask-2)" x="-5.05096987" y="-2.52652052" width="28.0582513" height="26.9495522"></rect>
            </g>
        </g>
    </g>
</svg>