<?xml version="1.0" encoding="UTF-8"?>
<svg width="1em" height="1em" viewBox="0 0 16 16" version="1.1" xmlns="http://www.w3.org/2000/svg" xmlns:xlink="http://www.w3.org/1999/xlink">
    <g stroke="none" stroke-width="1" fill="none" fill-rule="evenodd">
        <g transform="translate(-1.000000, -1.000000)">
            <path d="M14.0625,5.625 L14.02875,5.625 C13.7475,3.099375 11.59875,1.125 9,1.125 C6.40125,1.125 4.2525,3.099375 3.97125,5.625 L3.9375,5.625 C2.385,5.625 1.125,6.885 1.125,8.4375 C1.125,9.99 2.385,11.25 3.9375,11.25 L5.0625,11.25 L5.0625,6.1875 C5.0625,4.01625 6.82875,2.25 9,2.25 C11.17125,2.25 12.9375,4.01625 12.9375,6.1875 L12.9375,11.8125 C12.9375,12.8925 12.1725,13.798125 11.154375,14.011875 C10.884375,13.0725 10.029375,12.375 9,12.375 C7.756875,12.375 6.75,13.381875 6.75,14.625 C6.75,15.868125 7.756875,16.875 9,16.875 C10.063125,16.875 10.94625,16.138125 11.1825,15.148125 C12.808125,14.90625 14.0625,13.505625 14.0625,11.8125 L14.0625,11.25 C15.615,11.25 16.875,9.99 16.875,8.4375 C16.875,6.885 15.615,5.625 14.0625,5.625 Z" fill="#2F3A4E" fill-rule="nonzero"></path>
            <rect id="1" x="0" y="0" width="18" height="18"></rect>
        </g>
    </g>
</svg>