<svg width="1em" height="1em" viewBox="0 0 32 32" version="1.1" xmlns="http://www.w3.org/2000/svg" xmlns:xlink="http://www.w3.org/1999/xlink">
  <g stroke="none" stroke-width="1" fill="none" fill-rule="evenodd" transform="translate(4.000000, 0.500000)">
    <path d="M1.84615385,0 L16.6153846,0 L24,7.5 L24,28.125 C24,29.1605625 23.1734769,30 22.1538462,30 L1.84615385,30 C0.826523077,30 0,29.1605625 0,28.125 L0,1.875 C0,0.8394375 0.826523077,0 1.84615385,0 Z" fill="#F16C00" fill-rule="nonzero"></path>
    <g transform="translate(7.000000, 11.000000)">
      <path d="M2.1875,8.75 C2.13125,8.75 2.078125,8.734375 2.028125,8.70625 C1.934375,8.65 1.875,8.546875 1.875,8.4375 L1.875,1.5625 C1.875,1.453125 1.934375,1.35 2.028125,1.29375 C2.121875,1.2375 2.240625,1.234375 2.3375,1.2875 L8.5875,4.725 C8.6875,4.78125 8.75,4.884375 8.75,5 C8.75,5.115625 8.6875,5.21875 8.5875,5.275 L2.3375,8.7125 C2.290625,8.7375 2.240625,8.75 2.1875,8.75 Z" fill="#FFFFFF" fill-rule="nonzero"></path>
    </g>
    <path d="M16.6153846,0 L24,7.5 L18.4615385,7.5 C17.4419077,7.5 16.6153846,6.6605625 16.6153846,5.625 L16.6153846,0 Z" fill="#F9C499" fill-rule="nonzero"></path>
  </g>
</svg>