<svg width="1em" height="1em" viewBox="0 0 26 27" version="1.1" xmlns="http://www.w3.org/2000/svg" xmlns:xlink="http://www.w3.org/1999/xlink">
    <g stroke="none" stroke-width="1" fill="none" fill-rule="evenodd">
        <g itransform="translate(0.000000, 0.812500)">
            <rect fill="currentColor" fill-rule="nonzero" x="4.875" y="4.875" width="16.25" height="1.625"></rect>
            <rect fill="currentColor" fill-rule="nonzero" x="6.5" y="1.625" width="13" height="1.625"></rect>
            <rect opacity="0.100000001" x="0" y="0" width="26" height="26"></rect>
            <polygon points="10.5625 12.1875 10.5625 18.6875 10.5625 18.6875 16.25 15.4375"></polygon>
            <path d="M21.125,8.125 L4.875,8.125 C3.98125,8.125 3.25,8.85625 3.25,9.75 L3.25,21.125 C3.25,22.01875 3.98125,22.75 4.875,22.75 L21.125,22.75 C22.01875,22.75 22.75,22.01875 22.75,21.125 L22.75,9.75 C22.75,8.85625 22.01875,8.125 21.125,8.125 Z M10.5625,18.6875 L10.5625,18.6875 L10.5625,12.1875 L16.25,15.4375 L10.5625,18.6875 Z" fill="currentColor" fill-rule="nonzero"></path>
        </g>
        <g transform="translate(16.000000, 16.000000)">
            <circle fill="#F4F4F6" cx="5" cy="5" r="5"></circle>
            <path d="M0.833333333,5 L0.833333333,5 C0.833333333,7.30059524 2.69940476,9.16666667 5,9.16666667 C7.30059524,9.16666667 9.16666667,7.30059524 9.16666667,5 C9.16666667,2.69940476 7.30059524,0.833333333 5,0.833333333 C2.69940476,0.836309524 0.836309524,2.69940476 0.833333333,5 Z M7.72321429,7.30654762 L2.69345238,2.27678571 C3.33928571,1.72916667 4.15178571,1.42857143 5,1.42857143 C6.9702381,1.43154762 8.57440476,3.0297619 8.57143271,5 C8.57143271,5.8452381 8.27083333,6.66369048 7.72321429,7.30654762 Z M2.69047619,7.72619048 C1.1875,6.45238095 1,4.20238095 2.27380952,2.69940476 L7.30059524,7.72916667 C6.6577381,8.27380952 5.8422619,8.57440476 5,8.57440476 C4.1547619,8.57142857 3.33630952,8.27380952 2.69047619,7.72619048 Z" stroke="#F53F3F" stroke-width="0.2" fill="#F53F3F" fill-rule="nonzero"></path>
        </g>
    </g>
</svg>