<?xml version="1.0" encoding="UTF-8"?>
<svg width="1em" height="1em" viewBox="0 0 14 16" version="1.1" xmlns="http://www.w3.org/2000/svg" xmlns:xlink="http://www.w3.org/1999/xlink">
    <g stroke="none" stroke-width="1" fill="none" fill-rule="evenodd">
        <g transform="translate(-2.000000, -0.437500)">
            <rect fill="#2F3A4E" fill-rule="nonzero" x="3.375" y="3.375" width="11.25" height="1.125"></rect>
            <rect fill="#2F3A4E" fill-rule="nonzero" x="4.5" y="1.125" width="9" height="1.125"></rect>
            <rect opacity="0.100000001" x="0" y="0" width="18" height="18"></rect>
            <polygon points="7.3125 8.4375 7.3125 12.9375 7.3125 12.9375 11.25 10.6875"></polygon>
            <path d="M14.625,5.625 L3.375,5.625 C2.75625,5.625 2.25,6.13125 2.25,6.75 L2.25,14.625 C2.25,15.24375 2.75625,15.75 3.375,15.75 L14.625,15.75 C15.24375,15.75 15.75,15.24375 15.75,14.625 L15.75,6.75 C15.75,6.13125 15.24375,5.625 14.625,5.625 Z M7.3125,12.9375 L7.3125,12.9375 L7.3125,8.4375 L11.25,10.6875 L7.3125,12.9375 Z" id="形状" fill="#2F3A4E" fill-rule="nonzero"></path>
        </g>
    </g>
</svg>