<svg xmlns="http://www.w3.org/2000/svg" xmlns:xlink="http://www.w3.org/1999/xlink" width="1em" height="1em" viewBox="0 0 26 26"><defs><path id="mic_loading_svg__mic_disable_svg__a" d="M1.625 9.75v2.438a5.683 5.683 0 0 0 5.688 5.687A5.683 5.683 0 0 0 13 12.187V9.75h1.625v2.438a7.322 7.322 0 0 1-6.5 7.263v1.674h3.25v1.625H3.25v-1.625H6.5v-1.674A7.29 7.29 0 0 1 0 12.187V9.75h1.625ZM7.313 0a4.064 4.064 0 0 1 4.062 4.063v8.125a4.064 4.064 0 0 1-4.062 4.062 4.064 4.064 0 0 1-4.063-4.063V4.063A4.064 4.064 0 0 1 7.313 0Z"/></defs><g fill="none" fill-rule="evenodd"><g transform="translate(6 2)"><mask id="mic_loading_svg__mic_disable_svg__b" fill="#fff"><use xlink:href="#mic_loading_svg__mic_disable_svg__a"/></mask><use xlink:href="#mic_loading_svg__mic_disable_svg__a" fill="#B2B7C4" fill-rule="nonzero"/><path fill="#B2B7C4" d="M-5.687-1.625h26v26h-26z" mask="url(#mic_loading_svg__mic_disable_svg__b)"/></g><path d="M0 0h26v26H0z"/></g></svg>