<svg width="1em" height="1em" viewBox="0 0 26 26" version="1.1" xmlns="http://www.w3.org/2000/svg" xmlns:xlink="http://www.w3.org/1999/xlink"><defs><path d="M1.62503516,9.75 L1.62503516,12.1875 C1.62503516,15.331875 4.16816016,17.875 7.31253516,17.875 C10.4569102,17.875 13.0000352,15.331875 13.0000352,12.1875 L13.0000352,12.1875 L13.0000352,9.75 L14.6250352,9.75 L14.6250352,12.1875 C14.6169102,15.90875 11.8219102,19.036875 8.12503516,19.45125 L8.12503516,19.45125 L8.12503516,21.125 L11.3750352,21.125 L11.3750352,22.75 L3.25003516,22.75 L3.25003516,21.125 L6.50003516,21.125 L6.50003516,19.45125 C2.79503516,19.045 -0.0080898407,15.916875 1.75415381e-05,12.1875 L1.75415381e-05,12.1875 L1.75415381e-05,9.75 L1.62503516,9.75 Z M7.31253516,0 C9.55503516,0 11.3750352,1.82 11.3750352,4.0625 L11.3750352,4.0625 L11.3750352,12.1875 C11.3750352,14.43 9.55503516,16.25 7.31253516,16.25 C5.07003516,16.25 3.25003516,14.43 3.25003516,12.1875 L3.25003516,12.1875 L3.25003516,4.0625 C3.25003516,1.82 5.07003516,0 7.31253516,0 Z" id="mic_disable_svg__path-1"/><path d="M0.833333333,5 L0.833333333,5 C0.833333333,7.30059524 2.69940476,9.16666667 5,9.16666667 C7.30059524,9.16666667 9.16666667,7.30059524 9.16666667,5 C9.16666667,2.69940476 7.30059524,0.833333333 5,0.833333333 C2.69940476,0.836309524 0.836309524,2.69940476 0.833333333,5 Z M7.72321429,7.30654762 L2.69345238,2.27678571 C3.33928571,1.72916667 4.15178571,1.42857143 5,1.42857143 C6.9702381,1.43154762 8.57440476,3.0297619 8.57143271,5 C8.57143271,5.8452381 8.27083333,6.66369048 7.72321429,7.30654762 Z M2.69047619,7.72619048 C1.1875,6.45238095 1,4.20238095 2.27380952,2.69940476 L7.30059524,7.72916667 C6.6577381,8.27380952 5.8422619,8.57440476 5,8.57440476 C4.1547619,8.57142857 3.33630952,8.27380952 2.69047619,7.72619048 Z" id="mic_disable_svg__path-3"/></defs><g id="mic_disable_svg__麦克风/不可用" stroke="none" stroke-width="1" fill="none" fill-rule="evenodd"><g id="mic_disable_svg__编组-24"><rect id="mic_disable_svg__1" x="0" y="0" width="26" height="26"/><g id="mic_disable_svg__1" transform="translate(4.687465, 1.625000)"><mask id="mic_disable_svg__mask-2" fill="white"><use xlink:href="#mic_disable_svg__path-1"/></mask><use id="mic_disable_svg__蒙版" fill="currentColor" fill-rule="nonzero" xlink:href="#mic_disable_svg__path-1"/></g><g id="mic_disable_svg__编组-23" transform="translate(12.000000, 14.000000)"><circle id="mic_disable_svg__椭圆形" fill="#F4F4F6" cx="5" cy="5" r="5"/><g id="mic_disable_svg__形状" fill-rule="nonzero"><use fill="#F53F3F" xlink:href="#mic_disable_svg__path-3"/><path stroke="#F4F4F6" stroke-width="1" d="M5,0.333333333 C6.28833333,0.333333333 7.45501979,0.855799918 8.29960994,1.70039006 C9.14420008,2.54498021 9.66666667,3.71166667 9.66666667,5 C9.66666667,6.28833333 9.14420008,7.45501979 8.29960994,8.29960994 C7.45501979,9.14420008 6.28833333,9.66666667 5,9.66666667 C3.71166667,9.66666667 2.54498021,9.14420008 1.70039006,8.29960994 C0.855799918,7.45501979 0.333333333,6.28833333 0.333333333,5 C0.398090484,3.64495074 0.932669306,2.497149 1.75343769,1.67638062 C2.59478177,0.835036537 3.73837568,0.334965029 5,0.333333333 Z M2.33862707,3.47157682 C2.01929068,4.02321073 1.88858623,4.64754512 1.93909891,5.25694453 C2.00394607,6.03927924 2.36742359,6.79697603 3.01375194,7.3447553 C3.5697407,7.81619276 4.27434659,8.07184654 5.00176055,8.07440786 C5.54002074,8.07440555 6.06640843,7.93076702 6.52837788,7.66380824 L6.52837788,7.66380824 Z M4.99924471,1.92857086 C4.45567651,1.92857143 3.92852847,2.07267277 3.46527507,2.34150162 L3.46527507,2.34150162 L7.65884647,6.53507302 L7.76631039,6.33258166 C7.96572981,5.92013477 8.07143271,5.4647655 8.07143271,5 C8.07270968,4.15309052 7.72890306,3.3869007 7.17358199,2.83158027 C6.61684927,2.2748482 5.84749443,1.9298522 4.99924471,1.92857086 Z"/><use stroke="#F53F3F" stroke-width="0.2" xlink:href="#mic_disable_svg__path-3"/></g></g></g></g></svg>