<?xml version="1.0" encoding="UTF-8"?>
<svg width="1em" height="1em" viewBox="0 0 18 18" version="1.1" xmlns="http://www.w3.org/2000/svg" xmlns:xlink="http://www.w3.org/1999/xlink">
    <g  stroke="none" stroke-width="1" fill="none" fill-rule="evenodd" opacity="0.900000036">
        <g transform="translate(-1252.000000, -626.000000)">
            <g transform="translate(1231.000000, 604.000000)">
                <g transform="translate(12.000000, 13.000000)">
                    <g transform="translate(9.000000, 9.000000)">
                        <rect x="0" y="0" width="18" height="18"></rect>
                        <g transform="translate(1.125000, 1.687500)" fill="#2F3A4E" fill-rule="nonzero">
                            <path d="M11.8156872,5.92282976 C13.2529673,5.92548917 14.6165663,6.5530445 15.5453448,7.63929228 C15.6725305,7.19525476 15.7371817,6.73594967 15.737466,6.27439436 C15.737466,2.80838086 12.2208124,0 7.88137882,0 C3.54194523,0 -0.0331800712,2.78356455 0.000232313445,6.27439436 C0.0274868585,8.11615374 0.963561287,9.82801129 2.50616125,10.8571425 C2.69828247,11.0184486 3.34147089,11.3327888 2.11774227,13.0327071 C1.84626664,13.6862037 3.2370572,13.5497139 3.46259079,13.5248975 C4.84920479,13.3677275 5.46315739,12.6191017 6.2775843,12.4784758 C6.58247232,12.5157003 6.94165547,12.5322445 7.26324968,12.5405166 C7.02336123,11.9743216 6.89574415,11.3676987 6.88736034,10.7537412 C6.9011674,8.07360479 9.105124,5.91138018 11.8115107,5.92282976 L11.8156872,5.92282976 Z"></path>
                            <path d="M11.7830198,6.74999077 C13.9643579,6.74533972 15.7383999,8.50528048 15.7500022,10.685455 C15.7509229,11.5707582 15.4592625,12.3882031 14.966175,13.0462994 L14.9944805,13.0739854 L14.1989854,13.8694805 L14.1707256,13.8414184 C13.5166243,14.3311033 12.7049518,14.6221983 11.8250615,14.6250203 C9.65375478,14.6319026 7.88664918,12.880718 7.87494325,10.7105637 C7.86346544,8.54040931 9.61176296,6.77046684 11.7830198,6.75421829 Z M8.99994328,10.7045249 C9.00830233,12.2542066 10.2704116,13.5049365 11.8214639,13.5000203 C12.391711,13.4981914 12.921815,13.3268977 13.3641366,13.0342243 L9.46766134,9.13710039 C9.16939893,9.58602971 8.99687998,10.125335 8.99994328,10.7045249 Z M11.919375,7.8778125 L11.7914385,7.87918679 C11.2267721,7.88341246 10.7021801,8.05364523 10.2637198,8.34322481 L14.1600604,12.2390862 C14.4544583,11.7949672 14.6256078,11.2627704 14.6250174,10.6914408 C14.6171518,9.21342377 13.477136,8.00508842 12.0294175,7.88482608 L11.919375,7.8778125 Z"></path>
                        </g>
                    </g>
                </g>
            </g>
        </g>
    </g>
</svg>