<?xml version="1.0" encoding="UTF-8"?>
<svg width="1em" height="1em" viewBox="0 0 18 18" version="1.1" xmlns="http://www.w3.org/2000/svg" xmlns:xlink="http://www.w3.org/1999/xlink">
    <g stroke="none" stroke-width="1" fill="none" fill-rule="evenodd">
        <g transform="translate(-266.000000, -1526.000000)">
            <g transform="translate(131.000000, 952.000000)">
                <g transform="translate(0.000000, 558.000000)">
                    <g transform="translate(135.000000, 16.000000)">
                        <rect x="0" y="0" width="18" height="18"></rect>
                        <g transform="translate(1.124951, 1.125000)" fill="#3A3D48" fill-rule="nonzero">
                            <path d="M7.88142733,0 C12.4102018,0 15.7375145,2.94906302 15.7375145,6.83689436 L14.6125145,6.83689436 C14.6125145,3.60264258 11.8170871,1.125 7.88142733,1.125 C3.91954377,1.125 1.09434387,3.60199849 1.12521924,6.82857134 C1.14973001,8.48491619 1.99192172,10.0250846 3.38088217,10.9517166 L3.49517676,11.0399002 C3.5325985,11.0705821 3.5764911,11.1076492 3.60369757,11.1336544 C4.12336594,11.6303777 4.11224996,12.3591302 3.47824093,13.4098137 L3.39019316,13.5500625 L3.51522496,13.5541686 C3.61280037,13.5544554 3.71409183,13.5500546 3.81388127,13.5423465 L3.96178666,13.5284765 C4.41420973,13.4771952 4.7747409,13.361962 5.20467712,13.1517735 L5.46262945,13.0191612 L5.73802901,12.8718384 C5.89088533,12.7907783 6.00846178,12.7322288 6.12724266,12.6799572 C6.33975666,12.5864368 6.53838906,12.5222537 6.74442308,12.4866781 L6.93584255,13.5952735 C6.82831158,13.6138407 6.7147051,13.6505498 6.58038146,13.7096612 L6.46856677,13.7615679 C6.42904171,13.780778 6.38664692,13.8021827 6.33953362,13.8266433 L5.88938673,14.066095 C5.27092322,14.3883998 4.75404406,14.5708795 4.08666199,14.6465229 C3.7591397,14.6825615 3.41836901,14.6956751 3.09380821,14.6534742 C2.36783452,14.5590797 1.84824625,14.1318659 2.16083041,13.3794128 L2.18577994,13.3193543 L2.22377565,13.2665733 C2.62469113,12.7096495 2.8134058,12.3121689 2.8434675,12.0667378 L2.84940512,12.0016762 C2.84977227,11.9790307 2.84600559,11.9685085 2.83706397,11.957938 L2.81456075,11.9366707 L2.73769316,11.874375 L2.59947708,11.7792937 C1.04859801,10.6748868 0.0924823595,8.92624237 0.00604156932,7.03215332 L0.000306588408,6.84227807 C-0.0369571128,2.94907378 3.32667956,0 7.88142733,0 Z"></path>
                            <path d="M11.7830684,7.31249077 C13.9644064,7.30783972 15.7384484,9.06778048 15.7500507,11.247955 C15.7509714,12.1332582 15.459311,12.9507031 14.9662235,13.6087994 L14.994529,13.6364854 L14.1990339,14.4319805 L14.1707741,14.4039184 C13.5166728,14.8936033 12.7050003,15.1846983 11.82511,15.1875203 C9.65380329,15.1944026 7.88669769,13.443218 7.87499176,11.2730637 C7.86351395,9.10290931 9.61181147,7.33296684 11.7830684,7.31671829 Z M8.99999179,11.2670249 C9.00835085,12.8167066 10.2704601,14.0674365 11.8215124,14.0625203 C12.3917595,14.0606914 12.9218635,13.8893977 13.3641851,13.5967243 L9.46770985,9.69960039 C9.16944744,10.1485297 8.99692849,10.687835 8.99999179,11.2670249 Z M11.9194235,8.4403125 L11.791487,8.44168679 C11.2268206,8.44591246 10.7022286,8.61614523 10.2637683,8.90572481 L14.1601089,12.8015862 C14.4545068,12.3574672 14.6256564,11.8252704 14.625066,11.2539408 C14.6172003,9.77592377 13.4771845,8.56758842 12.029466,8.44732608 L11.9194235,8.4403125 Z"></path>
                        </g>
                    </g>
                </g>
            </g>
        </g>
    </g>
</svg>