<?xml version="1.0" encoding="UTF-8"?>
<svg width="1em" height="1em" viewBox="0 0 18 18" version="1.1" xmlns="http://www.w3.org/2000/svg" xmlns:xlink="http://www.w3.org/1999/xlink">
    <g stroke="none" stroke-width="1" fill="none" fill-rule="evenodd">
        <g>
            <rect x="0" y="0" width="18" height="18"></rect>
            <polygon points="9 4.5 8.195625 5.281875 11.334375 8.4375 4.5 8.4375 4.5 9.5625 11.334375 9.5625 8.195625 12.695625 9 13.5 13.5 9"></polygon>
            <path d="M9,1.125 C13.348125,1.125 16.875,4.651875 16.875,9 C16.875,13.348125 13.348125,16.875 9,16.875 C4.651875,16.875 1.125,13.348125 1.125,9 C1.125,4.651875 4.651875,1.125 9,1.125 Z M9,4.5 L8.195625,5.281875 L11.334375,8.4375 L4.5,8.4375 L4.5,9.5625 L11.334375,9.5625 L8.195625,12.695625 L9,13.5 L13.5,9 L9,4.5 Z" fill="#2F3A4E" fill-rule="nonzero"></path>
        </g>
    </g>
</svg>