<?xml version="1.0" encoding="UTF-8"?>
<svg width="1em" height="1em" viewBox="0 0 16 17" version="1.1" xmlns="http://www.w3.org/2000/svg" xmlns:xlink="http://www.w3.org/1999/xlink">
    <g stroke="none" stroke-width="1" fill="none" fill-rule="evenodd">
        <g transform="translate(-1.000000, 0.000000)">
            <rect x="0" y="0" width="18" height="18"></rect>
            <path d="M16.149375,10.850625 L14.625,9.32625 L14.625,7.3125 C14.625,4.39875 12.403125,1.996875 9.5625,1.715625 L9.5625,0.5625 L8.4375,0.5625 L8.4375,1.715625 C5.596875,1.996875 3.375,4.39875 3.375,7.3125 L3.375,9.331875 L1.850625,10.85625 C1.74375,10.963125 1.6875,11.10375 1.6875,11.255625 L1.6875,12.943125 C1.6875,13.2525 1.940625,13.505625 2.25,13.505625 L6.1875,13.505625 L6.1875,14.068125 C6.1875,15.620625 7.4475,16.880625 9,16.880625 C10.5525,16.880625 11.8125,15.620625 11.8125,14.068125 L11.8125,13.505625 L15.75,13.505625 C16.059375,13.505625 16.3125,13.2525 16.3125,12.943125 L16.3125,11.255625 C16.3125,11.098125 16.250625,10.9575 16.149375,10.850625 Z M10.6875,14.0625 C10.6875,14.990625 9.928125,15.75 9,15.75 C8.071875,15.75 7.3125,14.990625 7.3125,14.0625 L7.3125,13.5 L10.6875,13.5 L10.6875,14.0625 Z" fill="#2F3A4E" fill-rule="nonzero"></path>
        </g>
    </g>
</svg>