<svg class="icon" viewBox="0 0 1024 1024" version="1.1" xmlns="http://www.w3.org/2000/svg" p-id="13739" width="1em" height="1em" fill="currentColor"><path d="M918.72 617.28L832 530.56V416c0-165.76-126.4-302.4-288-318.4V32h-64v65.6c-161.6 16-288 152.64-288 318.4v114.88L105.28 617.6a31.68 31.68 0 0 0-9.28 22.72v96c0 17.6 14.4 32 32 32h224v32c0 88.32 71.68 160 160 160s160-71.68 160-160v-32h224c17.6 0 32-14.4 32-32v-96c0-8.96-3.52-16.96-9.28-23.04zM608 800c0 52.8-43.2 96-96 96s-96-43.2-96-96v-32h192v32z" p-id="13740"></path></svg>