<?xml version="1.0" encoding="UTF-8"?>
<svg width="1em" height="1em" viewBox="0 0 18 18" version="1.1" xmlns="http://www.w3.org/2000/svg" xmlns:xlink="http://www.w3.org/1999/xlink">
    <g stroke="none" stroke-width="1" fill="none" fill-rule="evenodd">
        <g>
            <path d="M15.75,3.375 L15.75,4.5 L14.625,4.5 L14.625,15.75 C14.625,16.36875 14.11875,16.875 13.5,16.875 L4.5,16.875 C3.88125,16.875 3.375,16.36875 3.375,15.75 L3.375,4.5 L2.25,4.5 L2.25,3.375 L15.75,3.375 Z M7.875,6.75 L6.75,6.75 L6.75,13.5 L7.875,13.5 L7.875,6.75 Z M11.25,6.75 L10.125,6.75 L10.125,13.5 L11.25,13.5 L11.25,6.75 Z" fill="#2F3A4E" fill-rule="nonzero"></path>
            <rect fill="#2F3A4E" fill-rule="nonzero" x="6.75" y="1.125" width="4.5" height="1.125"></rect>
            <rect x="0" y="0" width="18" height="18"></rect>
        </g>
    </g>
</svg>