<svg
  width="1em"
  height="1em"
  viewBox="0 0 22 22"
  version="1.1"
  xmlns="http://www.w3.org/2000/svg"
  fill="currentColor"
>
  <path d="M12.375,19.25 C16.9125,19.25 20.625,15.5375 20.625,11 C20.625,6.4625 16.9125,2.75 12.375,2.75 C7.8375,2.75 4.125,6.4625 4.125,11 L4.125,15.2625 L1.65,12.7875 L0.6875,13.75 L4.8125,17.875 L8.9375,13.75 L7.975,12.7875 L5.5,15.2625 L5.5,11 L5.5,11 C5.5,7.21875 8.59375,4.125 12.375,4.125 C16.15625,4.125 19.25,7.21875 19.25,11 C19.25,14.78125 16.15625,17.875 12.375,17.875 L12.375,19.25 Z"></path>
</svg>