<svg 
  viewBox="0 0 1024 1024"
  version="1.1"
  xmlns="http://www.w3.org/2000/svg"
  width="1em"
  height="1em"
  fill="currentColor"
>
  <path d="M512 736h31.776L544 896H480.224L480 736zM736 896V959.776L288 960V896.224z" p-id="12589"></path><path d="M896 128a64 64 0 0 1 64 64v512a64 64 0 0 1-64 64H128a64 64 0 0 1-64-64V192a64 64 0 0 1 64-64h768z m-367.072 213.632v52.288h-2.176c-76.16 0-205.664 93.12-206.752 175.968 0 6.624 5.056 8.48 9.92 0 24.64-46.496 128-70.592 180.704-70.592h18.304v55.168c0 16.48 11.52 27.712 24.576 16.64l120.448-102.336c13.024-11.04 13.024-29.184 0-40.32l-121.376-103.424c-13.024-11.104-23.68-3.008-23.68 16.608z"></path>
</svg>