<svg width="1em" height="1em" viewBox="0 0 26 26" version="1.1" xmlns="http://www.w3.org/2000/svg" xmlns:xlink="http://www.w3.org/1999/xlink">
  <g stroke="none" stroke-width="1" fill="currentColor" fill-rule="evenodd">
    <path d="M22.0962099,3.78571429 C23.226542,3.78571429 24.1428571,4.70202946 24.1428571,5.83236152 L24.1428571,17.7900875 C24.1428571,18.9204195 23.226542,19.8367347 22.0962099,19.8367347 L13.5171429,19.8367143 L13.5211429,22.3587143 L17.6428571,22.3571429 L17.6428571,23.811418 L8.35714286,23.8163265 L8.35714286,22.3620514 L12.0751429,22.3597143 L12.0711429,19.8367143 L3.90379009,19.8367347 C2.77345803,19.8367347 1.85714286,18.9204195 1.85714286,17.7900875 L1.85714286,5.83236152 C1.85714286,4.70202946 2.77345803,3.78571429 3.90379009,3.78571429 L22.0962099,3.78571429 Z M13.686542,9.16102783 L13.686542,10.4887065 L13.6319398,10.4887065 C11.6983807,10.4887065 8.40940302,12.8533684 8.38210194,14.9562346 C8.38210194,15.1245319 8.51057763,15.1721311 8.63423548,14.9562346 C9.25894852,13.7764536 11.8846704,13.1644634 13.2224235,13.1644634 L13.686542,13.1644634 L13.686542,14.5652409 C13.686542,14.9834342 13.9788242,15.2690296 14.311255,14.9868341 L17.3689764,12.3892759 C17.6998013,12.1087804 17.6998013,11.6480878 17.3689764,11.3658924 L14.2871658,8.73943461 C13.9563409,8.45723915 13.686542,8.66293584 13.686542,9.16102783 Z"></path>
    <g transform="translate(16.000000, 16.000000)">
      <circle fill="#F4F4F6" cx="5" cy="5" r="5"></circle>
      <path d="M0.833333333,5 L0.833333333,5 C0.833333333,7.30059524 2.69940476,9.16666667 5,9.16666667 C7.30059524,9.16666667 9.16666667,7.30059524 9.16666667,5 C9.16666667,2.69940476 7.30059524,0.833333333 5,0.833333333 C2.69940476,0.836309524 0.836309524,2.69940476 0.833333333,5 Z M7.72321429,7.30654762 L2.69345238,2.27678571 C3.33928571,1.72916667 4.15178571,1.42857143 5,1.42857143 C6.9702381,1.43154762 8.57440476,3.0297619 8.57143271,5 C8.57143271,5.8452381 8.27083333,6.66369048 7.72321429,7.30654762 Z M2.69047619,7.72619048 C1.1875,6.45238095 1,4.20238095 2.27380952,2.69940476 L7.30059524,7.72916667 C6.6577381,8.27380952 5.8422619,8.57440476 5,8.57440476 C4.1547619,8.57142857 3.33630952,8.27380952 2.69047619,7.72619048 Z" stroke="#F53F3F" stroke-width="0.2" fill="#F53F3F" fill-rule="nonzero"></path>
    </g>
  </g>
</svg>