<?xml version="1.0" standalone="no"?>
<!DOCTYPE svg PUBLIC "-//W3C//DTD SVG 1.1//EN" "http://www.w3.org/Graphics/SVG/1.1/DTD/svg11.dtd">
<svg t="1695890979561" class="icon" viewBox="0 0 1024 1024" version="1.1" xmlns="http://www.w3.org/2000/svg" p-id="12207" xmlns:xlink="http://www.w3.org/1999/xlink" width="1em" height="1em">
  <path d="M587.84 63.68c30.4 0 56.64 21.76 62.72 51.52l16 80.64c14.4 7.04 28.48 15.36 41.92 24.32l77.76-26.24c6.72-2.56 13.76-3.52 20.48-3.52 22.4 0 43.52 11.84 55.36 32l75.52 130.88c15.36 26.24 9.92 59.84-13.12 80l-61.44 54.08c0.64 8.32 0.96 16.32 0.96 24.64s-0.64 16.32-1.28 24.32l61.76 54.4a64 64 0 0 1 13.12 80l-75.52 130.88c-11.52 20.16-32.96 32-55.36 32-6.72 0-13.76-1.28-20.48-3.52l-77.44-26.24c-13.44 8.96-27.84 16.96-42.56 24l-16 80.64A64 64 0 0 1 587.52 960h-151.04c-30.4 0-56.64-21.76-62.72-51.52l-16-80.64c-14.4-7.04-28.48-15.36-41.92-24.32l-77.76 26.24c-6.72 2.56-13.76 3.52-20.48 3.52-22.4 0-43.52-11.84-55.36-32l-75.52-130.88c-15.36-26.24-9.92-59.84 13.12-80l61.44-54.08c-0.64-8.32-0.96-16.32-0.96-24.64s0.64-16.32 1.28-24.32l-61.76-54.4a64 64 0 0 1-13.12-80l75.52-130.88c11.52-20.16 32.96-32 55.36-32 6.72 0 13.76 1.28 20.48 3.52l77.44 26.24c13.44-8.96 27.84-16.96 42.56-24l16-80.64a64 64 0 0 1 62.72-51.52zM512 320c-107.52 0-192 84.48-192 192s84.48 192 192 192 192-84.48 192-192-84.48-192-192-192z" p-id="12208"></path>
</svg>