<?xml version="1.0" encoding="UTF-8"?>
<svg width="1em" height="1em" viewBox="0 0 18 18" version="1.1" xmlns="http://www.w3.org/2000/svg" xmlns:xlink="http://www.w3.org/1999/xlink">
    <defs>
        <rect id="path-1" x="0" y="0" width="18" height="18"></rect>
    </defs>
    <g stroke="none" stroke-width="1" fill="none" fill-rule="evenodd">
        <g>
            <mask fill="white">
                <use xlink:href="#path-1"></use>
            </mask>
            <path d="M15.2973761,2.62087912 C16.0799137,2.62087912 16.7142857,3.25525117 16.7142857,4.03778874 L16.7142857,12.3162144 C16.7142857,13.098752 16.0799137,13.733124 15.2973761,13.733124 L9.35771429,13.7328791 L9.35971429,15.4788791 L12.2142857,15.478022 L12.2142857,16.4848279 L5.78571429,16.4882261 L5.78571429,15.4814202 L8.35871429,15.4798791 L8.35671429,13.7328791 L2.70262391,13.733124 C1.92008633,13.733124 1.28571429,13.098752 1.28571429,12.3162144 L1.28571429,4.03778874 C1.28571429,3.25525117 1.92008633,2.62087912 2.70262391,2.62087912 L15.2973761,2.62087912 Z M9.47529828,6.34225004 L9.47529828,7.26141218 L9.43749678,7.26141218 C8.09887893,7.26141218 5.8218944,8.89848584 5.80299365,10.3543163 C5.80299365,10.4708298 5.89193836,10.5037831 5.97754764,10.3543163 C6.41004128,9.5375448 8.22784875,9.1138593 9.15398553,9.1138593 L9.47529828,9.1138593 L9.47529828,10.0836283 C9.47529828,10.3731467 9.67764749,10.5708666 9.90779193,10.3755006 L12.024676,8.57719101 C12.2537086,8.38300183 12.2537086,8.0640608 12.024676,7.86869472 L9.89111479,6.05037781 C9.66208217,5.85501172 9.47529828,5.99741712 9.47529828,6.34225004 Z" id="形状结合" fill="#2F3A4E" fill-rule="nonzero" mask="url(#mask-2)"></path>
        </g>
    </g>
</svg>