<?xml version="1.0" encoding="UTF-8"?>
<svg width="1em" height="1em" viewBox="0 0 22 22" version="1.1" xmlns="http://www.w3.org/2000/svg" xmlns:xlink="http://www.w3.org/1999/xlink">
    <g stroke="none" stroke-width="1" fill="none" fill-rule="evenodd">
        <g transform="translate(-832.000000, -845.000000)">
            <g transform="translate(0.000000, 833.000000)">
                <g transform="translate(476.000000, 1.000000)">
                    <g transform="translate(328.000000, 0.000000)">
                        <g transform="translate(26.000000, 9.000000)">
                            <rect x="0" y="0" width="26" height="26"></rect>
                            <path d="M8.72692436,2.87878281 L11.5865,5.7425 L8.82496095,8.5060815 L9.89582218,9.56968622 L12.6525,6.8115 L13.5005522,7.66123237 L15.7665,9.9265 L13.0103693,12.6850674 L14.0812305,13.7486721 L16.8335,10.9945 L19.9485,14.1105 L17.1957776,16.8640533 L18.2590975,17.9352013 L21.0145,15.1775 L23.1340048,17.2973405 C23.6806702,17.8557566 23.7042672,18.7319699 23.204796,19.3178218 L23.1156794,19.4136873 L19.4053715,23.1249888 C19.1112617,23.4191774 18.7191154,23.5625 18.3345103,23.5625 C17.9499052,23.5625 17.5653001,23.4191774 17.2711903,23.1249888 L13.1461122,18.9995603 L7.65078425,13.496726 L2.8824353,8.71729379 C2.5958668,8.43819184 2.4375,8.05348375 2.4375,7.65368907 C2.4375,7.25389439 2.5958668,6.8767296 2.8824353,6.59008436 L6.5927432,2.87878281 C7.18096274,2.29040573 8.13870482,2.29040573 8.72692436,2.87878281 Z M6.64930277,14.4984757 L11.4908021,19.3412716 L7.27145805,23.5625 L2.4375,23.5625 L2.4375,18.7121608 L6.64930277,14.4984757 Z M20.4083612,2.8863261 L23.1081381,5.58682601 L23.1961266,5.68269153 C23.6947282,6.27502116 23.6653987,7.16416887 23.1081381,7.72157874 L19.3405165,11.489455 L14.5073126,6.65420237 L18.2741801,2.8863261 L18.3700199,2.79831402 C18.9621909,2.29957888 19.8511006,2.32891624 20.4083612,2.8863261 Z" fill="#494F61" fill-rule="nonzero"></path>
                        </g>
                    </g>
                </g>
            </g>
        </g>
    </g>
</svg>