<?xml version="1.0" encoding="UTF-8"?>
<svg width="1em" height="1em" viewBox="0 0 16 16" version="1.1" xmlns="http://www.w3.org/2000/svg" xmlns:xlink="http://www.w3.org/1999/xlink">
    <g stroke="none" stroke-width="1" fill="none" fill-rule="evenodd">
        <g transform="translate(-1.000000, -1.000000)">
            <path d="M9,4.5 C7.4475,4.5 6.1875,5.76 6.1875,7.3125 C6.1875,8.865 7.4475,10.125 9,10.125 C10.5525,10.125 11.8125,8.865 11.8125,7.3125 C11.8125,5.76 10.5525,4.5 9,4.5 Z" fill="#2F3A4E" fill-rule="nonzero"></path>
            <rect x="0" y="0" width="18" height="18"></rect>
            <path d="M9,1.125 C4.6575,1.125 1.125,4.6575 1.125,9 C1.125,13.3425 4.6575,16.875 9,16.875 C13.3425,16.875 16.875,13.3425 16.875,9 C16.875,4.6575 13.3425,1.125 9,1.125 Z M13.494375,14.023125 C13.471875,12.493125 12.223125,11.25 10.6875,11.25 L7.3125,11.25 C5.776875,11.25 4.528125,12.4875 4.505625,14.023125 C3.1275,12.785625 2.25,10.996875 2.25,9 C2.25,5.27625 5.27625,2.25 9,2.25 C12.72375,2.25 15.75,5.27625 15.75,9 C15.75,10.996875 14.878125,12.785625 13.494375,14.023125 Z" fill="#2F3A4E" fill-rule="nonzero"></path>
        </g>
    </g>
</svg>